<?xml version="1.0" encoding="UTF-8"?>
<svg width="54px" height="61px" viewBox="0 0 54 61" version="1.1" xmlns="http://www.w3.org/2000/svg" xmlns:xlink="http://www.w3.org/1999/xlink">
    <!-- Generator: Sketch 64 (93537) - https://sketch.com -->
    <title>Group</title>
    <desc>Created with Sketch.</desc>
    <g id="Desktop" stroke="none" stroke-width="1" fill="none" fill-rule="evenodd">
        <g id="HOMEPAGE" transform="translate(-692.000000, -68.000000)" fill="#272727" fill-rule="nonzero">
            <g id="HEADER" transform="translate(0.000000, -4.000000)">
                <g id="Group" transform="translate(692.000000, 72.000000)">
                    <path d="M24.0773397,12.9640867 L18.3420181,11.4379883 C17.7151042,11.2711803 17.0118796,11.4093791 16.5067532,11.7985585 C16.1225809,12.0943442 15.8834108,12.5134331 15.8313862,12.9709434 L15.1960198,15.3257621 C15.0087552,15.7565548 15.0072075,16.2479941 15.1967341,16.7023125 C15.259116,16.8518605 15.3406648,16.9934877 15.4378091,17.1247116 C14.8306573,18.3799686 14.1385044,19.9280559 13.4119462,21.650399 C13.4111128,21.6524087 13.4102795,21.6543002 13.4094462,21.6561917 C12.774794,23.1608924 12.1143082,24.7975262 11.4619178,26.4874771 C9.23783773,27.0866147 6.40172496,29.6716071 5.57659389,32.7287691 L0.117228599,52.9620745 C-0.408136201,54.909508 0.882001651,56.9508079 2.99310385,57.5124698 L8.58211389,58.9996739 C8.58211389,58.9996739 8.58235199,58.9996739 8.58235199,58.9997921 L14.1711239,60.486878 C14.5347007,60.5835817 14.9039917,60.6315789 15.2698304,60.6315789 C15.9068635,60.6315789 16.5333012,60.4861687 17.0998571,60.2003134 C18.0346326,59.7286167 18.6927374,58.9379632 18.9528603,57.9739996 L19.7038236,55.1907527 C19.7039427,55.190398 19.7041808,55.1899252 19.7041808,55.1895705 C19.7042998,55.1892158 19.7042998,55.1888612 19.7044189,55.1885065 L24.4123446,37.7408124 C25.2373567,34.6835322 24.0825779,31.0368085 22.4582685,29.4135335 C22.8674412,26.8546676 23.2076842,24.381511 23.4480449,22.2456353 C23.4487592,22.2394879 23.4495925,22.2333404 23.4501877,22.2270748 C23.5704276,21.1568316 23.6653099,20.172416 23.7313823,19.3040922 C24.246747,19.0533481 24.6555625,18.5928823 24.8155648,18.0004833 L25.5098606,15.4276675 C25.7985553,14.3562421 25.1559269,13.2511242 24.0773397,12.9640867 Z M16.6529458,57.3617397 C16.5699684,57.6689927 16.3456794,57.928485 16.0211509,58.0922193 C15.6538836,58.2774696 15.215663,58.3168368 14.7872043,58.202873 L9.19855144,56.7159053 C9.19843239,56.7159053 9.19843239,56.7157871 9.19831335,56.7157871 L3.60930331,55.228583 C2.78060075,55.0081032 2.23464041,54.2503148 2.41702403,53.5738616 L2.86024477,51.9311985 L17.0961666,55.7191948 L16.6529458,57.3617397 Z M17.7124851,53.4354263 L3.47644423,49.6474299 L7.56852768,34.4825587 L21.8044495,38.270555 L17.7124851,53.4354263 Z M22.2956471,35.9534485 L8.30949087,32.2318916 C9.34176782,30.2083246 11.4365603,28.7440552 12.362169,28.7208841 C12.8456284,28.7088257 13.2738489,28.4073654 13.4453991,27.9582487 C14.0640986,26.3381656 14.6929172,24.7604052 15.3014975,23.29519 L20.9272938,23.29519 C20.7311005,24.8825262 20.4871684,26.6178735 20.2068071,28.4104391 L19.9157315,28.3330052 C19.2803651,28.163951 18.6278556,28.5382346 18.457734,29.1689368 C18.2876125,29.7996391 18.6644037,30.4478378 19.299532,30.6167738 L20.6660995,30.9804176 C21.4417061,31.5959877 22.4149346,33.7936924 22.2956471,35.9534485 Z M22.5881514,17.1198646 C22.5787465,17.1199828 22.5694606,17.1210468 22.5600557,17.1214014 C22.5512461,17.1216379 22.5426745,17.122229 22.5339839,17.1228201 C22.5050549,17.1245934 22.476364,17.1273124 22.4479112,17.1310955 C22.4380301,17.1323959 22.4282681,17.1335781 22.418506,17.1351149 C22.3900532,17.1396073 22.3619576,17.1452818 22.333981,17.1517839 C22.3258856,17.1536754 22.3175522,17.1550941 22.3094568,17.157222 C22.2752897,17.1659703 22.2415987,17.176019 22.208503,17.1877227 C22.1977885,17.1915057 22.1874312,17.1961163 22.1767168,17.2001358 C22.1544546,17.2087658 22.1323114,17.2176323 22.1106444,17.2274445 C22.0971918,17.233592 22.0840964,17.2402123 22.071001,17.2468326 C22.0523102,17.2561719 22.0339766,17.2658659 22.0157621,17.2761511 C22.0030238,17.2833625 21.9902855,17.2908103 21.9777853,17.2984946 C21.9588565,17.3100801 21.9405229,17.3224932 21.9223083,17.3351427 C21.911832,17.3424723 21.9012366,17.3494473 21.8909984,17.3571316 C21.8668313,17.375101 21.8434977,17.3940161 21.8207592,17.4137588 C21.8171878,17.4168325 21.8133782,17.4195516 21.8099257,17.4227435 C21.7831396,17.4466239 21.7576631,17.4718047 21.7330199,17.4979313 C21.7279007,17.5033694 21.7232578,17.5091621 21.7182577,17.5147185 C21.699567,17.5354069 21.6814715,17.5566865 21.6642093,17.5787935 C21.6571854,17.5877782 21.6505187,17.5971176 21.6437328,17.6063387 C21.629566,17.6254903 21.6159943,17.6451148 21.603018,17.6652122 C21.595756,17.676443 21.588613,17.6879103 21.5817081,17.6993777 C21.5705175,17.7180564 21.5600411,17.7373262 21.5498029,17.7567142 C21.542898,17.7698366 21.5359932,17.7828408 21.5295645,17.7961996 C21.5206358,17.8151148 21.5125405,17.8345028 21.5045641,17.8538908 C21.4986117,17.8681954 21.492183,17.8822636 21.4869448,17.8968046 C21.4764685,17.9254138 21.4673017,17.9547323 21.4589682,17.9845236 C21.4490871,18.0198713 21.4411108,18.0559283 21.4344441,18.0924582 C21.4330155,18.1001425 21.4308726,18.1078268 21.4295631,18.1155111 C21.4287297,18.1204763 21.4286107,18.1257962 21.4277773,18.1309979 C21.4225391,18.1667002 21.4183724,18.2024026 21.4163486,18.2379867 C21.3730146,19.0119712 21.2977754,19.9211991 21.1950358,20.9309138 L16.3087741,20.9309138 C16.9242593,19.5263452 17.4972438,18.2959144 17.9909415,17.3260398 C18.006537,17.2953026 18.0204657,17.2633833 18.0334421,17.2309911 C18.0357041,17.2251984 18.0387993,17.2195238 18.0410613,17.213731 C18.0434423,17.2073472 18.045109,17.2006087 18.0474899,17.1942248 C18.0605854,17.158286 18.0720141,17.1221108 18.0815381,17.0855809 C18.0892763,17.0556713 18.0961811,17.0256435 18.1014193,16.9957339 C18.1040384,16.9810746 18.105467,16.9664154 18.1074908,16.9517561 C18.1104671,16.9300037 18.1134433,16.9083695 18.11511,16.8867353 C18.1163005,16.8729036 18.1167767,16.8590719 18.1173719,16.8452402 C18.1184434,16.8220691 18.1190386,16.7990163 18.1186815,16.7760816 C18.1184434,16.7637868 18.1182053,16.7514919 18.11761,16.7393153 C18.1165386,16.7137798 18.1143957,16.6884808 18.1116576,16.6633 C18.1105861,16.6534878 18.1096337,16.6436755 18.1083242,16.6338633 C18.1042765,16.6037173 18.0989193,16.5738077 18.0924906,16.5441345 C18.0914192,16.5391693 18.0907049,16.5343223 18.0896334,16.5293571 C18.081419,16.4936547 18.071657,16.4584252 18.0602282,16.4237869 C18.0595139,16.4216589 18.0586806,16.4196492 18.0579663,16.4176394 C18.047609,16.3869023 18.0358231,16.3565198 18.0229658,16.3268467 C18.0182038,16.3159705 18.0129656,16.3053307 18.0079656,16.2945727 C17.9983226,16.2738843 17.9883224,16.2534322 17.9773699,16.2333349 C17.9705841,16.2206854 17.9634411,16.2082723 17.9561791,16.1958592 C17.9457028,16.1780081 17.9346312,16.1605115 17.9232024,16.1431332 C17.914988,16.130602 17.9067736,16.1180707 17.898083,16.1057758 C17.8849876,16.0874518 17.8709398,16.069837 17.8567729,16.0522223 C17.8489156,16.04241 17.8415346,16.0322431 17.8332011,16.0226673 C17.8108198,15.996659 17.787129,15.9715964 17.7624858,15.9475978 C17.7549857,15.9402682 17.7470094,15.9336479 17.7392712,15.9265547 C17.7199852,15.9087035 17.700223,15.8913252 17.6796274,15.8746563 C17.6708178,15.8675631 17.661651,15.8607063 17.6526032,15.8538496 C17.6310553,15.837417 17.6089121,15.821812 17.5860547,15.8067981 C17.5778402,15.8014782 17.5697449,15.7960401 17.5612924,15.7908385 C17.5537923,15.7861097 17.5465303,15.7807898 17.5389111,15.7762974 L18.0691569,13.8131407 L23.117921,15.1564714 L22.5881514,17.1198646 Z" id="Shape"></path>
                    <path d="M16.9572925,26.5832236 L16.9244321,26.5744424 C16.1752416,26.3730414 15.4055485,26.8221571 15.2057176,27.5779066 C15.0057462,28.3337977 15.451188,29.1098006 16.2006593,29.3113433 L16.2335198,29.3202661 C16.3547103,29.3528415 16.4764625,29.3684211 16.5962487,29.3684211 C17.2168059,29.3684211 17.7847021,28.9501811 17.9522343,28.3166602 C18.1520652,27.5607691 17.7066234,26.7847662 16.9572925,26.5832236 Z" id="Shape"></path>
                    <path d="M17.3635941,42.15846 C16.7311885,41.0627724 15.7101224,40.2792233 14.4883843,39.9517606 C14.0867892,39.8441136 13.6737666,39.7894737 13.2608696,39.7894737 C11.1230477,39.7894737 9.24328633,41.2333495 8.68974314,43.3006229 C8.36236404,44.5225475 8.53026042,45.7988609 9.16266593,46.8944228 C9.79507143,47.9899848 10.8161376,48.7736595 12.0377501,49.1009966 C12.4393452,49.2086436 12.8523678,49.2631579 13.2652648,49.2631579 C15.4029612,49.2631579 17.2828481,47.8194077 17.8365168,45.7520087 C18.1640215,44.5302097 17.9959996,43.2538963 17.3635941,42.15846 Z M15.4107469,45.101982 C15.1506771,46.0729398 14.268499,46.7509773 13.2653904,46.7509773 C13.0718763,46.7509773 12.8776088,46.7252275 12.6877364,46.6743558 C12.1141009,46.5206103 11.6346481,46.1525759 11.3377842,45.6382069 C11.0407948,45.1237123 10.9619324,44.5245573 11.1157642,43.9506496 C11.3757085,42.9796918 12.2578865,42.3015287 13.2609952,42.3015287 C13.4545093,42.3015287 13.6487768,42.3272785 13.8386491,42.3781502 C14.4122846,42.5318956 14.8917374,42.8999301 15.1887269,43.4144247 C15.4854652,43.9289192 15.5643275,44.5281999 15.4107469,45.101982 Z" id="Shape"></path>
                    <path d="M53.8816386,52.9621486 L48.4224967,32.7288452 C47.5975365,29.6714292 44.7616016,27.0864219 42.5376611,26.4875174 C41.8853116,24.7975567 41.2248672,23.1607953 40.5902549,21.6562042 C40.5894216,21.6541945 40.5885883,21.6523029 40.587755,21.6502932 C39.8612424,19.9279402 39.1691329,18.379844 38.5619002,17.124698 C38.6589193,16.9935916 38.740463,16.8518453 38.802841,16.7024147 C38.9924747,16.2480937 38.9908081,15.7565333 38.8036743,15.3257382 L38.1682287,12.970906 C38.1162074,12.5135113 37.8771713,12.09442 37.4930231,11.7986325 C36.9879284,11.4093327 36.284748,11.2711331 35.6577544,11.4380603 L29.9226734,12.9640492 C29.4010319,13.1029582 28.9646243,13.4359851 28.6939231,13.9017734 C28.4231028,14.36768 28.3508444,14.9096024 28.4907186,15.4276442 L29.1847328,18.000593 C29.3447251,18.5929954 29.7535149,19.0534639 30.2689663,19.3040911 C30.3349155,20.1719471 30.4296728,21.1557773 30.5497861,22.2254354 C30.5505003,22.2330016 30.5515717,22.2405677 30.552405,22.2481338 C30.7926315,24.3833124 31.1327342,26.8554192 31.5417621,29.4134723 C29.9175546,31.0366384 28.7629674,34.6836195 29.5878086,37.7407991 L35.0469505,57.9739843 C35.307176,58.9380717 35.9652396,59.7287297 36.8999564,60.2003109 C37.4664768,60.4862861 38.0928752,60.6315789 38.7298683,60.6315789 C39.095565,60.6315789 39.464952,60.5836997 39.8283868,60.4868772 L51.0058247,57.5125701 C52.0024434,57.2474017 52.8519263,56.6428226 53.3977333,55.8103145 C53.9699676,54.9376115 54.1417451,53.926236 53.8816386,52.9621486 Z M31.5918788,17.1362836 C31.5741415,17.1334463 31.5561662,17.1310819 31.5381909,17.128954 C31.5177157,17.1264713 31.4972405,17.1245798 31.4765272,17.1231612 C31.4624802,17.1222154 31.4484333,17.1212696 31.4341483,17.1207967 C31.4266486,17.1205603 31.4193871,17.1197328 31.4120065,17.1196145 L30.8823891,15.1562101 L35.9308365,13.8132264 L36.4606919,15.7763943 C36.4530732,15.7810049 36.4458117,15.7862066 36.438312,15.7909355 C36.42986,15.7962554 36.4215271,15.8016935 36.4131942,15.8071316 C36.3905762,15.8220274 36.3685535,15.8376325 36.3471259,15.8538287 C36.3379597,15.8609219 36.3286744,15.8677787 36.3196273,15.8749902 C36.2993901,15.8914228 36.2798673,15.9085648 36.2608206,15.9261796 C36.2529638,15.9335093 36.2446309,15.9404843 36.2368931,15.9479321 C36.2124896,15.9718127 36.1889193,15.9967572 36.1666584,16.0225292 C36.1579684,16.032578 36.1501116,16.043336 36.1417787,16.0537394 C36.1280889,16.0707631 36.1145181,16.0879051 36.1017806,16.1055199 C36.0927334,16.1180513 36.0844005,16.1309373 36.0758295,16.1439416 C36.0646395,16.1608471 36.0538067,16.1778708 36.0435691,16.1953674 C36.0360695,16.208017 36.0288079,16.2209031 36.0217845,16.2339073 C36.0110707,16.2536501 36.0013092,16.2736294 35.9917859,16.293845 C35.9865481,16.3049578 35.9810721,16.3159523 35.9763105,16.3271832 C35.9638111,16.3562654 35.952383,16.3859387 35.9421454,16.4159667 C35.9411931,16.4186858 35.9400027,16.4214049 35.9391694,16.4241239 C35.9277414,16.4586443 35.918099,16.4937557 35.9098851,16.5292219 C35.9086947,16.53466 35.9078614,16.5400981 35.90679,16.5455363 C35.9004808,16.5746185 35.8951239,16.6040554 35.8910765,16.6337287 C35.889767,16.6437774 35.8889337,16.6539444 35.8877433,16.6639931 C35.8850053,16.6889376 35.8829816,16.7140003 35.8817912,16.7392995 C35.881196,16.7515944 35.8808389,16.7640076 35.8806008,16.7764207 C35.8803627,16.7992373 35.8809579,16.8220538 35.8820293,16.8451068 C35.8826245,16.859175 35.8832197,16.8730068 35.884172,16.887075 C35.8859577,16.9087093 35.8889337,16.9302255 35.8919098,16.9518598 C35.8939335,16.9665191 35.895362,16.9812967 35.8980999,16.9958378 C35.9036949,17.0272844 35.9105993,17.0586128 35.9189323,17.0899412 C35.9275033,17.1228065 35.938217,17.1554353 35.9498832,17.1878277 C35.9529782,17.1964578 35.9553591,17.2055608 35.9585732,17.2141909 C35.9600017,17.2178557 35.9619064,17.2214023 35.9633349,17.2249489 C35.9771437,17.2599422 35.9922621,17.2941079 36.009166,17.3270913 C36.5028327,18.2968533 37.0755432,19.5268184 37.6908707,20.9310403 L32.8050346,20.9310403 C32.7023015,19.9212016 32.626948,19.0119685 32.5837358,18.2380978 C32.581712,18.202277 32.5775456,18.1662198 32.5721887,18.1301625 C32.5714744,18.1253155 32.5712364,18.1204685 32.5705221,18.1157396 C32.5692126,18.1079371 32.5670699,18.1001346 32.5655223,18.092332 C32.5592131,18.0575752 32.5519516,18.0230548 32.5426663,17.989362 C32.5339762,17.957679 32.5240958,17.9267052 32.5129058,17.8963226 C32.5080251,17.8828455 32.502073,17.8698412 32.4965971,17.8564823 C32.4881451,17.8357937 32.4794551,17.8151052 32.4699317,17.7951259 C32.4639796,17.7827128 32.4574323,17.7705361 32.451004,17.7582412 C32.4402903,17.737789 32.4292194,17.7175733 32.4175533,17.6978305 C32.411006,17.6869542 32.4043396,17.6763144 32.3975542,17.6656746 C32.3842216,17.644986 32.3701746,17.6247703 32.3555325,17.6050275 C32.3488661,17.5960428 32.3425569,17.5869398 32.3356525,17.5781915 C32.3187485,17.5565571 32.3010113,17.5357504 32.2827979,17.5154164 C32.2770839,17.5091508 32.271846,17.5026486 32.266132,17.4965012 C32.2422046,17.4710838 32.2173248,17.4466122 32.1913737,17.423441 C32.1824456,17.415402 32.1728032,17.4081905 32.1636369,17.400388 C32.146733,17.3862015 32.1299481,17.3721333 32.1122108,17.3590109 C32.0974496,17.3477799 32.0819742,17.3374947 32.0666178,17.3269731 C32.0541184,17.3185795 32.041738,17.3101858 32.0290006,17.3022651 C32.0111443,17.2910341 31.9928118,17.2802761 31.9742413,17.2699909 C31.9640037,17.2643163 31.9536471,17.2589964 31.9432904,17.2535583 C31.9224581,17.2428002 31.9015067,17.2322786 31.8800792,17.2227027 C31.8735319,17.2198654 31.8669846,17.2173828 31.8604373,17.2145455 C31.7884169,17.1840447 31.7130634,17.160637 31.6348529,17.1447955 C31.6206869,17.14184 31.6064019,17.1387662 31.5918788,17.1362836 Z M33.3344139,30.9804837 L34.7007766,30.616956 C35.3358651,30.448019 35.7127517,29.7996983 35.5425218,29.1691107 C35.3722919,28.5385231 34.7193472,28.1640009 34.0846158,28.3331743 L33.7935584,28.4106086 C33.5133338,26.6179145 33.269417,24.882439 33.0731169,23.2953301 L38.6986793,23.2953301 C39.3072215,24.7605537 39.9361197,26.3383232 40.5546614,27.9584156 C40.7262007,28.4074167 41.1542754,28.7088787 41.6378235,28.7209372 C42.5632551,28.7441084 44.6577971,30.2083863 45.6900093,32.2320831 L31.7047305,35.9536613 C31.5854505,33.7936564 32.558737,31.5959391 33.3344139,30.9804837 Z M36.2874859,53.4357396 L32.1957782,38.270663 L46.4308069,34.4826449 L50.5225146,49.6477215 L36.2874859,53.4357396 Z M51.4027103,54.5202935 C51.1778402,54.8631327 50.8182147,55.1148239 50.389902,55.2287884 L39.2124641,58.2030955 C38.7840324,58.3170599 38.3460773,58.2778108 37.978714,58.0924412 C37.6542058,57.9287059 37.4299309,57.6693304 37.3469587,57.3619573 L36.9037658,55.7194031 L51.1387945,51.931385 L51.5819874,53.5740574 C51.6648406,53.8814305 51.6012722,54.2175311 51.4027103,54.5202935 Z" id="Shape"></path>
                    <path d="M39.7412973,27.5766191 C39.5406078,26.8212072 38.7709938,26.372407 38.0214628,26.5749265 L37.9887401,26.5838487 C37.2394899,26.7862265 36.7948553,27.5627401 36.9955448,28.3181521 C37.1635116,28.9510609 37.7308913,29.3684211 38.3512171,29.3684211 C38.4712937,29.3684211 38.5937579,29.352701 38.7153794,29.3198447 L38.748102,29.3109225 C39.4973522,29.1085446 39.9419868,28.332031 39.7412973,27.5766191 Z" id="Shape"></path>
                    <path d="M47.2050272,43.3006554 C46.6513611,41.2333112 44.7714834,39.7894737 42.6337974,39.7894737 C42.2209024,39.7894737 41.8078819,39.8441122 41.4062888,39.9517562 C40.1845566,40.2790847 39.163621,41.0627387 38.531093,42.1583972 C37.8988162,43.2539301 37.730795,44.5302096 38.058047,45.7522274 C38.6118386,47.8191948 40.4917163,49.2630323 42.6292767,49.2631579 C42.6294023,49.2631579 42.6294023,49.2631579 42.6295278,49.2631579 C43.0422972,49.2631579 43.4553178,49.2085194 43.8569109,49.1010009 C45.0785175,48.7736725 46.0995787,47.9900185 46.7319811,46.8944856 C47.3643835,45.7988271 47.5324047,44.5225476 47.2050272,43.3006554 Z M44.5571246,45.638303 C44.2601365,46.152784 43.7806861,46.5206831 43.207179,46.6744244 C43.0174331,46.7252948 42.823041,46.7510439 42.6296534,46.7510439 C42.6296534,46.7510439 42.6296534,46.7510439 42.6295278,46.7510439 C41.6265496,46.7510439 40.7441247,46.0728988 40.4840562,45.1020923 C40.3303507,44.5283255 40.4092127,43.9290607 40.7060751,43.4145798 C41.0030631,42.9000988 41.4825136,42.5321997 42.0561463,42.3783327 C42.2458921,42.3274624 42.4402843,42.3017133 42.6337974,42.3017133 C43.6367756,42.3017133 44.5190749,42.9798584 44.7791435,43.9509161 C44.932849,44.5245573 44.853987,45.1238221 44.5571246,45.638303 Z" id="Shape"></path>
                    <path d="M27.9473684,0 C27.1625211,0 26.5263158,0.453486488 26.5263158,1.01292492 L26.5263158,3.72391718 C26.5263158,4.28335562 27.1625211,4.73684211 27.9473684,4.73684211 C28.7320737,4.73684211 29.3684211,4.28335562 29.3684211,3.72391718 L29.3684211,1.01292492 C29.3684211,0.453486488 28.7322158,0 27.9473684,0 Z" id="Shape"></path>
                    <path d="M22.581657,6.87417795 L21.0482213,4.33163424 C20.7330978,3.80904048 20.0419464,3.63385529 19.5047477,3.94045679 C18.9674361,4.2469486 18.78743,4.91905859 19.1025535,5.44165235 L20.6359892,7.98419606 C20.8459964,8.33237251 21.2228137,8.52631579 21.6098946,8.52631579 C21.8037734,8.52631579 22.0002462,8.47772027 22.1794628,8.37537351 C22.7167744,8.06877201 22.8967805,7.39666202 22.581657,6.87417795 Z" id="Shape"></path>
                    <path d="M34.4952903,3.94043315 C33.9578784,3.63383007 33.2668558,3.80912586 32.9517396,4.33161262 L31.4183394,6.87416943 C31.1032232,7.39676589 31.2832252,8.06887934 31.8205243,8.37537273 C31.9998495,8.47772002 32.1962051,8.52631579 32.3900794,8.52631579 C32.7771512,8.52631579 33.1539599,8.33237151 33.364075,7.98419327 L34.8974752,5.44163645 C35.2125914,4.91903999 35.0324766,4.24692654 34.4952903,3.94043315 Z" id="Shape"></path>
                </g>
            </g>
        </g>
    </g>
</svg>