<?xml version="1.0" encoding="UTF-8"?>
<svg width="89px" height="68px" viewBox="0 0 89 68" version="1.1" xmlns="http://www.w3.org/2000/svg" xmlns:xlink="http://www.w3.org/1999/xlink">
    <!-- Generator: Sketch 64 (93537) - https://sketch.com -->
    <title>Group 3</title>
    <desc>Created with Sketch.</desc>
    <g id="Desktop" stroke="none" stroke-width="1" fill="none" fill-rule="evenodd">
        <g id="HOMEPAGE" transform="translate(-1316.000000, -73.000000)" fill="#272727">
            <g id="HEADER" transform="translate(0.000000, -4.000000)">
                <g id="Group-3" transform="translate(1312.000000, 77.000000)">
                    <g id="Group-2" transform="translate(27.533333, 0.000000)" fill-rule="nonzero">
                        <path d="M25.0133333,25.2 L19.7866667,25.2 C17.6251787,25.2 15.8666667,26.8747733 15.8666667,28.9333333 C15.8666667,30.9918933 17.6251787,32.6666667 19.7866667,32.6666667 L25.0133333,32.6666667 C27.1748213,32.6666667 28.9333333,30.9918933 28.9333333,28.9333333 C28.9333333,26.8747733 27.1748213,25.2 25.0133333,25.2 Z M25.0133333,30.1777778 L19.7866667,30.1777778 C19.0661707,30.1777778 18.48,29.61952 18.48,28.9333333 C18.48,28.2471467 19.0661707,27.6888889 19.7866667,27.6888889 L25.0133333,27.6888889 C25.7338293,27.6888889 26.32,28.2471467 26.32,28.9333333 C26.32,29.61952 25.7338293,30.1777778 25.0133333,30.1777778 Z" id="Shape"></path>
                        <path d="M42.8077198,13.4558266 L40.2920948,8.25686823 C40.0820401,7.82267135 39.642225,7.546875 39.1598958,7.546875 L34.4817557,7.546875 L33.2239432,2.515625 L34.1286458,2.515625 C34.8232937,2.515625 35.3864583,1.95246042 35.3864583,1.2578125 C35.3864583,0.563164583 34.8232937,0 34.1286458,0 C33.0706578,0 25.1558307,0 24.0661458,0 C23.3714979,0 22.8083333,0.563164583 22.8083333,1.2578125 C22.8083333,1.95246042 23.3714979,2.515625 24.0661458,2.515625 L24.9708484,2.515625 L23.7129521,7.546875 L19.3041516,7.546875 L18.0463391,2.515625 L18.9510417,2.515625 C19.6456896,2.515625 20.2088542,1.95246042 20.2088542,1.2578125 C20.2088542,0.563164583 19.6456896,0 18.9510417,0 C17.6867724,0 9.97948437,0 8.72083333,0 C8.02618542,0 7.46302083,0.563164583 7.46302083,1.2578125 C7.46302083,1.95246042 8.02618542,2.515625 8.72083333,2.515625 L9.62553594,2.515625 L8.36763958,7.546875 L3.7734375,7.546875 C3.29110833,7.546875 2.85129323,7.82267135 2.64123854,8.25686823 L0.125613542,13.4558266 C0.0429333333,13.6266375 0,13.8138839 0,14.0036458 L0,21.5505208 L0,39.1598958 C0,39.8545437 0.563164583,40.4177083 1.2578125,40.4177083 L5.16373958,40.4177083 C5.68296458,41.8817182 7.0810651,42.9333333 8.72083333,42.9333333 L18.9510417,42.9333333 C19.9371667,42.9333333 20.8356641,42.5527193 21.5085937,41.9311922 C22.1815234,42.5527193 23.0800208,42.9333333 24.0661458,42.9333333 L34.1286458,42.9333333 C35.7684141,42.9333333 37.1665146,41.8817182 37.6857396,40.4177083 L41.6755208,40.4177083 C42.3701687,40.4177083 42.9333333,39.8545437 42.9333333,39.1598958 L42.9333333,21.5505208 L42.9333333,14.0036458 C42.9333333,13.8138839 42.8904,13.6266375 42.8077198,13.4558266 Z M27.5638708,2.515625 L30.6309208,2.515625 L31.2598271,5.03125 L26.9348807,5.03125 L27.5638708,2.515625 Z M23.2042927,14.12775 L24.478876,12.7700672 C24.923387,12.3184286 25.2786771,11.6562323 25.4553578,10.9494255 L26.3059745,7.546875 L31.8887333,7.546875 L32.73935,10.9494255 C32.9160307,11.6564 33.2714047,12.3185964 33.7159156,12.7702349 L34.9904151,14.12775 C35.2242005,14.3779708 35.3864583,14.6411891 35.3864583,15.0456177 L35.3864583,20.2927083 L32.8708333,20.2927083 L32.8708333,16.5192708 C32.8708333,15.8246229 32.3076687,15.2614583 31.6130208,15.2614583 L22.8083333,15.2614583 C22.8083333,15.0235641 22.7674964,14.5655526 23.1767047,14.1562604 C23.1860125,14.1468688 23.1952365,14.1373932 23.2042927,14.12775 Z M30.3552083,17.7770833 L30.3552083,20.2927083 L22.8083333,20.2927083 L22.8083333,17.7770833 L30.3552083,17.7770833 Z M23.083962,10.0625 C22.8639286,10.9427172 22.9414099,10.7324109 21.5085099,12.2586406 C20.0574974,10.7131245 20.1534266,10.9443104 19.932974,10.0625 L23.083962,10.0625 Z M12.2185583,2.515625 L15.4533167,2.515625 L16.0822229,5.03125 L11.5895682,5.03125 L12.2185583,2.515625 Z M9.13356354,12.7700672 C9.57807448,12.3184286 9.93336458,11.6562323 10.1100453,10.9494255 L10.960662,7.546875 L16.7111292,7.546875 L17.5617458,10.9494255 C17.7384266,11.6564 18.0938005,12.3185964 18.5383115,12.7702349 L19.8128109,14.12775 C20.0465964,14.3779708 20.2088542,14.6411891 20.2088542,15.0456177 L20.2088542,20.2927083 L17.6932292,20.2927083 L17.6932292,16.5192708 C17.6932292,15.8246229 17.1300646,15.2614583 16.4354167,15.2614583 L7.46302083,15.2614583 C7.46302083,14.8992922 7.4321625,14.5845875 7.85898021,14.12775 L9.13356354,12.7700672 Z M15.1776042,17.7770833 L15.1776042,20.2927083 L7.46302083,20.2927083 L7.46302083,17.7770833 L15.1776042,17.7770833 Z M2.515625,14.2919365 L4.56208594,10.0541146 L7.73864948,10.0541146 C7.51601667,10.9446458 7.61068802,10.7168141 6.03716458,12.3928911 C5.3342151,13.1038068 4.94739583,14.0449859 4.94739583,15.0456177 C4.94739583,15.5673583 4.94739583,19.7713031 4.94739583,20.2927083 L2.515625,20.2927083 L2.515625,14.2919365 Z M20.2088542,39.1598958 C20.2088542,39.8534536 19.6445995,40.4177083 18.9510417,40.4177083 C7.8588125,40.4177083 8.62691667,40.4404328 8.37677969,40.3689052 C7.85453594,40.220651 7.46302083,39.7386573 7.46302083,39.1598958 L7.46302083,37.9020833 C7.90048802,37.9020833 19.9058052,37.9020833 20.2088542,37.9020833 L20.2088542,39.1598958 Z M35.3864583,39.1598958 C35.3864583,39.8534536 34.8222036,40.4177083 34.1286458,40.4177083 L24.0661458,40.4177083 C23.372588,40.4177083 22.8083333,39.8534536 22.8083333,39.1598958 L22.8083333,37.9020833 L35.3864583,37.9020833 L35.3864583,39.1598958 Z M40.4177083,37.9020833 L37.9020833,37.9020833 L37.9020833,36.6442708 C37.9020833,35.9496229 37.3389187,35.3864583 36.6442708,35.3864583 C35.9025807,35.3864583 7.00609948,35.3864583 6.20520833,35.3864583 C5.51056042,35.3864583 4.94739583,35.9496229 4.94739583,36.6442708 L4.94739583,37.9020833 L2.515625,37.9020833 L2.515625,22.8083333 C4.97263594,22.8083333 38.6524943,22.8083333 40.4177083,22.8083333 L40.4177083,37.9020833 Z M40.4177083,20.2927083 L37.9020833,20.2927083 L37.9020833,15.0456177 C37.9020833,14.0450698 37.5152641,13.1038906 36.8123984,12.392975 C35.2353531,10.7132083 35.3283474,10.9331578 35.110662,10.0624161 L38.3712474,10.0624161 L40.4177083,14.2919365 L40.4177083,20.2927083 Z" id="Shape"></path>
                    </g>
                    <text id="Winkelwagen" font-family="Helvetica" font-size="15" font-weight="normal">
                        <tspan x="4.39550781" y="62.3610487">Winkelwagen</tspan>
                    </text>
                </g>
            </g>
        </g>
    </g>
</svg>