<?xml version="1.0" encoding="UTF-8"?>
<svg width="101px" height="28px" viewBox="0 0 101 28" version="1.1" xmlns="http://www.w3.org/2000/svg" xmlns:xlink="http://www.w3.org/1999/xlink">
    <!-- Generator: Sketch 64 (93537) - https://sketch.com -->
    <title>Page 1</title>
    <desc>Created with Sketch.</desc>
    <g id="Desktop" stroke="none" stroke-width="1" fill="none" fill-rule="evenodd">
        <g id="HOMEPAGE" transform="translate(-579.000000, -2198.000000)" fill="#FEFEFE">
            <g id="Group-15" transform="translate(0.000000, 1991.000000)">
                <g id="Page-1" transform="translate(579.000000, 207.000000)">
                    <path d="M29.4463,-0.0001 C27.3143,-0.0001 25.6453,1.4059 25.6453,3.1999 L25.6453,23.7839 C25.6453,25.5789 27.3143,26.9839 29.4463,26.9839 C31.5683,26.9839 33.2933,25.5479 33.2933,23.7839 L33.2933,3.1999 C33.2933,1.4359 31.5683,-0.0001 29.4463,-0.0001" id="Fill-1"></path>
                    <path d="M17.3311,0.1655 C15.2051,0.1655 13.5401,1.5665 13.5401,3.3555 L13.5401,11.3245 L7.0461,1.6955 L7.0051,1.6405 C6.9701,1.5915 6.9341,1.5445 6.8911,1.4965 C6.2651,0.6565 5.2271,0.1755 4.0401,0.1755 C4.0011,0.1755 3.9631,0.1755 3.9291,0.1775 C3.9131,0.1775 3.8971,0.1745 3.8821,0.1725 C3.8511,0.1685 3.8201,0.1655 3.7891,0.1655 C1.6641,0.1655 0.0001,1.5665 0.0001,3.3555 L0.0001,23.8575 C0.0001,25.6445 1.6641,27.0445 3.7891,27.0445 C5.9011,27.0445 7.6201,25.6155 7.6201,23.8575 L7.6201,15.8425 L13.7931,24.9925 C14.0041,25.4645 14.3461,25.8905 14.7761,26.2205 C15.4011,26.7475 16.2341,27.0385 17.1221,27.0385 C17.1531,27.0385 17.1841,27.0375 17.2101,27.0375 C17.2251,27.0375 17.2381,27.0395 17.2511,27.0395 C17.2771,27.0425 17.3031,27.0445 17.3311,27.0445 C19.4451,27.0445 21.1651,25.6155 21.1651,23.8575 L21.1651,3.3555 C21.1651,1.5965 19.4451,0.1655 17.3311,0.1655" id="Fill-3"></path>
                    <path d="M72.5303,25.1 C71.1273,25.1 70.0293,24.248 70.0293,23.162 L70.0293,8.097 L68.6053,8.621 C68.4563,8.673 68.2983,8.7 68.1343,8.7 C67.2323,8.7 66.3013,7.934 65.9243,6.88 C65.4563,5.558 65.8913,4.236 66.9163,3.872 L71.4183,2.254 C71.7803,2.119 72.1543,2.05 72.5303,2.05 C73.9313,2.05 75.0713,2.92 75.0713,3.989 L75.0713,23.162 C75.0713,24.231 73.9313,25.1 72.5303,25.1 M72.5303,0.312 C71.9413,0.312 71.3633,0.417 70.8173,0.623 L66.3303,2.236 C64.3903,2.926 63.4923,5.221 64.2873,7.462 C64.9173,9.217 66.4963,10.443 68.1253,10.443 L68.1263,10.443 C68.1813,10.443 68.2363,10.442 68.2913,10.439 L68.2913,23.162 C68.2913,25.224 70.1533,26.838 72.5303,26.838 C74.8893,26.838 76.8083,25.189 76.8083,23.162 L76.8083,3.989 C76.8083,1.962 74.8893,0.312 72.5303,0.312" id="Fill-5"></path>
                    <path d="M90.5098,25.1699 C86.1678,25.1699 82.6358,21.9679 82.6358,18.0309 C82.6358,16.0569 83.5838,14.1399 85.2358,12.7719 L85.9138,12.2119 L85.3468,11.5419 C84.4508,10.4819 83.9768,9.2439 83.9768,7.9609 C83.9768,4.7009 86.9068,2.0499 90.5098,2.0499 C94.1138,2.0499 97.0468,4.7009 97.0468,7.9609 C97.0468,9.2399 96.5718,10.4789 95.6718,11.5429 L95.1048,12.2149 L95.7838,12.7719 C97.4598,14.1559 98.3838,16.0239 98.3838,18.0309 C98.3838,21.9679 94.8518,25.1699 90.5098,25.1699 M97.5098,11.9919 C98.3448,10.7679 98.7838,9.3809 98.7838,7.9609 C98.7838,3.7429 95.0718,0.3119 90.5098,0.3119 C85.9488,0.3119 82.2388,3.7429 82.2388,7.9609 C82.2388,9.3819 82.6768,10.7699 83.5098,11.9929 C81.8458,13.6349 80.8978,15.8179 80.8978,18.0309 C80.8978,22.9259 85.2098,26.9079 90.5098,26.9079 C95.8098,26.9079 100.1208,22.9259 100.1208,18.0309 C100.1208,15.8169 99.1738,13.6339 97.5098,11.9919" id="Fill-7"></path>
                    <path d="M46.0826,15.6552 C45.8506,15.4532 45.1846,14.7852 45.1416,13.7382 C45.1196,13.1502 45.2906,12.2852 46.2326,11.4982 L48.2326,9.4082 L49.5636,7.9732 L44.0856,2.1142 C43.2146,1.0512 42.1856,0.4882 41.1096,0.4882 C40.1706,0.4882 39.2206,0.9012 38.2736,1.7272 C36.3616,3.6862 37.0426,5.7702 38.3146,7.0632 L44.4666,13.6772 L38.2836,20.3792 C37.3476,21.4262 36.3386,23.7382 38.5026,25.7632 C39.2266,26.4222 40.0406,26.7552 40.9236,26.7552 C42.5656,26.7552 43.7976,25.5872 44.0316,25.3482 L49.5416,19.3932 L46.0826,15.6552 Z" id="Fill-9"></path>
                    <path d="M53.0943,13.6718 L60.0803,21.2448 C60.8923,22.1488 61.2853,23.5578 59.9593,24.7968 C59.4823,25.2308 58.9633,25.4518 58.4153,25.4518 C57.6003,25.4518 56.7453,24.9538 56.2673,24.4688 L47.1203,14.5888 L47.0893,14.5588 C46.9573,14.4458 46.6493,14.1358 46.6303,13.6778 C46.6193,13.4408 46.6723,13.0698 47.2423,12.5908 L56.2573,2.9458 L56.2723,2.9288 C56.8903,2.1748 57.5543,1.7938 58.2473,1.7938 C58.8463,1.7938 59.4793,2.0768 60.1293,2.6348 C61.2243,3.7658 61.2033,5.0218 60.0633,6.1818 L53.0943,13.6718 Z M61.1683,1.5708 L61.1473,1.5498 C60.2193,0.7428 59.2133,0.3158 58.2383,0.3158 C57.0933,0.3158 56.0213,0.8858 55.1373,1.9648 L48.2323,9.4088 L46.2333,11.4978 C45.2913,12.2858 45.1193,13.1498 45.1413,13.7388 C45.1843,14.7858 45.8503,15.4528 46.0823,15.6548 L55.1873,25.4938 C55.4253,25.7358 56.6953,26.9408 58.4153,26.9408 C59.3443,26.9408 60.2023,26.5888 60.9683,25.8918 C63.2343,23.7738 62.1723,21.3478 61.1833,20.2438 L55.1253,13.6778 L61.1403,7.2088 C62.4843,5.8448 63.1983,3.6478 61.1683,1.5708 L61.1683,1.5708 Z" id="Fill-11"></path>
                </g>
            </g>
        </g>
    </g>
</svg>