<?xml version="1.0" encoding="UTF-8"?>
<svg width="16px" height="16px" viewBox="0 0 16 16" version="1.1" xmlns="http://www.w3.org/2000/svg" xmlns:xlink="http://www.w3.org/1999/xlink">
    <!-- Generator: Sketch 64 (93537) - https://sketch.com -->
    <title>Shape</title>
    <desc>Created with Sketch.</desc>
    <g id="Desktop" stroke="none" stroke-width="1" fill="none" fill-rule="evenodd">
        <g id="PRODUCT-DETAIL" transform="translate(-1272.000000, -100.000000)" fill="#272727" fill-rule="nonzero">
            <g id="HEADER">
                <g id="ZOEKVELD" transform="translate(1019.000000, 83.000000)">
                    <path d="M268.445,30.3660003 L264.666,26.5870003 C265.236,25.6520003 265.564,24.5520003 265.564,23.3770003 C265.564,19.9600003 262.603,17 259.186,17 C255.769,16.9990003 253,19.7690003 253,23.1860003 C253,26.6020003 255.961,29.5630003 259.377,29.5630003 C260.514,29.5630003 261.577,29.2540003 262.492,28.7190003 L266.291,32.5200003 C266.663,32.8910003 267.266,32.8910003 267.637,32.5200003 L268.58,31.5770003 C268.951,31.2060003 268.816,30.7370003 268.445,30.3660003 Z M254.904,23.1860003 C254.904,20.8200003 256.821,18.9030003 259.186,18.9030003 C261.552,18.9030003 263.66,21.0100003 263.66,23.3770003 C263.66,25.7420003 261.742,27.6600003 259.377,27.6600003 C257.011,27.6590003 254.904,25.5510003 254.904,23.1860003 Z" id="Shape"></path>
                </g>
            </g>
        </g>
    </g>
</svg>