<svg id="Laag_1" data-name="Laag 1" xmlns="http://www.w3.org/2000/svg" viewBox="0 0 338.66 363.48"><defs><style>.cls-1{fill:#a99988;}.cls-2{fill:#9db2b5;}</style></defs><title>logo</title><path d="M186.21,417.55c-1.29,0-1.94-.67-1.94-2V397.17a39.49,39.49,0,0,1-8.66,10.9,37.68,37.68,0,0,1-51.72-1.64,37.84,37.84,0,0,1,26.72-64.56,38,38,0,0,1,37.84,37.84v35.82a1.79,1.79,0,0,1-2,2ZM126.88,356a33.58,33.58,0,0,0,23.73,57.31A33.55,33.55,0,1,0,126.88,356Z" transform="translate(-112.72 -86.54)"/><path d="M205.32,417.55c-1.29,0-1.94-.67-1.94-2V369.11a26.54,26.54,0,0,1,8-19.33,26,26,0,0,1,19.18-7.91h4.55a1.82,1.82,0,0,1,2,2.09c0,1.49-.67,2.24-2,2.24h-4.55a22.17,22.17,0,0,0-16.2,6.57,22.75,22.75,0,0,0-6.79,16.35v46.42a1.79,1.79,0,0,1-2,2h-.22Z" transform="translate(-112.72 -86.54)"/><path d="M244.22,432.78a2.2,2.2,0,0,1-.22-1.87,2,2,0,0,1,1.27-1.12,2.83,2.83,0,0,1,.9-.22,2.17,2.17,0,0,1,1.79,1q9.78,15.08,29.78,15.08,12.47,0,22.76-9.55,10.89-10.15,10.9-24V397.33a38.37,38.37,0,0,1-8.58,10.82,36.91,36.91,0,0,1-25.08,9.48A37.84,37.84,0,1,1,304.39,353a36.9,36.9,0,0,1,11.2,26.64v32.54q0,15.38-12.39,26.94Q291.56,450,277.75,450,255.34,450,244.22,432.78ZM254,356.05a33.56,33.56,0,1,0,47.46,47.46,32.23,32.23,0,0,0,9.93-23.73v-.52l-.15-.52A33.52,33.52,0,0,0,254,356.05Z" transform="translate(-112.72 -86.54)"/><path d="M332.59,315.15a3.24,3.24,0,0,1,0-4.62,3.23,3.23,0,0,1,2.39-1,2.92,2.92,0,0,1,2.24,1,3.24,3.24,0,0,1,0,4.62,3.06,3.06,0,0,1-2.24,1A3.25,3.25,0,0,1,332.59,315.15Zm2.17,102.4a1.79,1.79,0,0,1-2-2V344a1.82,1.82,0,0,1,2-2.09,1.88,1.88,0,0,1,2.16,2.09v71.57c0,1.34-.65,2-1.94,2Z" transform="translate(-112.72 -86.54)"/><path d="M361.25,415.54c0,1.34-.65,2-1.94,2-1.49,0-2.24-.67-2.24-2v-104a2.09,2.09,0,0,1,4.18,0Z" transform="translate(-112.72 -86.54)"/><path d="M388.79,406.43a37.84,37.84,0,0,1,26.72-64.56A38.05,38.05,0,0,1,449.85,364a2,2,0,0,1,.15,1.49,1.81,1.81,0,0,1-1,1.19q-10.3,4.56-29.11,13.06-19.11,8.66-29,13.06c-.7.3-1.59.72-2.69,1.27l-2.76,1.19a21.61,21.61,0,0,0,3.51,5.45,32.19,32.19,0,0,0,26.5,12.84,32.55,32.55,0,0,0,19.41-6.27A33,33,0,0,0,447.24,391a2,2,0,0,1,2.09-1.42,1.73,1.73,0,0,1,1.57.82,2,2,0,0,1,.3,1.94,37.77,37.77,0,0,1-35.68,25.23A36.27,36.27,0,0,1,388.79,406.43Zm3-50.23a32.23,32.23,0,0,0-9.93,23.73,38.87,38.87,0,0,0,.3,4.85,28.88,28.88,0,0,0,1.72,6.64q10.15-4.62,30.67-13.88l30.68-13.81a38.16,38.16,0,0,0-4-5.45,33.54,33.54,0,0,0-49.41-2.08Z" transform="translate(-112.72 -86.54)"/><path d="M449.38,260H442a2,2,0,1,1,0-4h7.4a2,2,0,0,1,0,4Z" transform="translate(-112.72 -86.54)"/><path class="cls-1" d="M298.61,226.1,289.86,92.39a18.18,18.18,0,0,0-16,0l-8.37,133.72h33.1Z" transform="translate(-112.72 -86.54)"/><rect class="cls-2" x="57.27" y="173.44" width="186.8" height="17.09"/><path d="M358.8,281.07H168a2,2,0,0,1-2-2V260H114.72a2,2,0,1,1,0-4H166V154.7a2,2,0,0,1,1.71-2l69.37-10a2,2,0,0,1,2.28,2V241l60.25.32-.73-11.21h-35.5a2,2,0,0,1-1.46-.63,2,2,0,0,1-.54-1.49L270,91.13a2,2,0,0,1,.8-1.48c2.89-2.15,7.67-3.11,11.11-3.11s8.22,1,11.11,3.11a2,2,0,0,1,.8,1.48l8.83,135h21.13V131.7a2,2,0,0,1,1.71-2l69.37-10a2,2,0,0,1,1.6.47,2,2,0,0,1,.69,1.52L396.78,256h37.27a2,2,0,0,1,0,4H394.8a2,2,0,0,1-2-2l.32-134-65.36,9.42V228.1a2,2,0,0,1-2,2H302.89l.86,13.09a2,2,0,0,1-2,2.13L237.35,245a2,2,0,0,1-2-2V147L170,156.42V256h188.8a2,2,0,0,1,2,2v21.09A2,2,0,0,1,358.8,281.07Zm-188.81-4h186.8V260H170Zm95.52-51h33.11L289.87,92.39a18.18,18.18,0,0,0-16,0Z" transform="translate(-112.72 -86.54)"/></svg>